<svg width="58" height="58" viewBox="0 0 58 58" fill="none" xmlns="http://www.w3.org/2000/svg">
<path d="M26.4738 1.02974L1.0263 26.4569C0.701078 26.7809 0.443029 27.166 0.266955 27.59C0.0908805 28.014 0.000244141 28.4686 0.000244141 28.9277C0.000244141 29.3869 0.0908805 29.8415 0.266955 30.2655C0.443029 30.6895 0.701078 31.0746 1.0263 31.3986L26.4738 56.8255C27.842 58.1924 30.0517 58.1924 31.4197 56.8255L42.0896 46.1644C43.3149 44.94 43.3149 42.9551 42.0896 41.731C40.8644 40.5067 38.8779 40.5067 37.6526 41.731L29.5639 49.813C29.2234 50.1533 28.7066 50.1533 28.3661 49.813L8.0443 29.508C7.70378 29.1677 7.70378 28.6513 8.0443 28.311L28.3661 8.00583C28.7066 7.66576 29.2234 7.66576 29.5639 8.00583L37.6526 16.088C38.8779 17.3123 40.8644 17.3123 42.0896 16.088C43.3149 14.8636 43.3149 12.879 42.0896 11.6546L31.4208 0.994852C30.0471 -0.342773 27.8366 -0.331898 26.4738 1.02974Z" fill="url(#paint0_linear_104_5)"/>
<path d="M26.4738 1.02977L1.0263 26.4569C0.701078 26.7809 0.443029 27.166 0.266955 27.59C0.0908805 28.0141 0.000244141 28.4687 0.000244141 28.9278C0.000244141 29.3869 0.0908805 29.8415 0.266955 30.2655C0.443029 30.6895 0.701078 31.0746 1.0263 31.3987L26.4738 56.8255C27.842 58.1924 30.0517 58.1924 31.4197 56.8255L42.0896 46.1644C43.3149 44.9401 43.3149 42.9552 42.0896 41.731C40.8644 40.5067 38.8779 40.5067 37.6526 41.731L29.5639 49.813C29.2234 50.1533 28.7066 50.1533 28.3661 49.813L8.0443 29.508C7.70378 29.1677 7.70378 28.6514 8.0443 28.3111L28.3661 8.00586C29.2138 7.27497 30.5975 5.79461 32.6288 5.44797C34.1386 5.19082 35.7894 5.75723 37.5808 7.14719L31.421 0.994654C30.0471 -0.342744 27.8368 -0.331869 26.4738 1.02977Z" fill="url(#paint1_linear_104_5)"/>
<path d="M44.5528 39.3662C45.7781 40.5905 47.7646 40.5905 48.9898 39.3662L56.8604 31.5022C57.1856 31.1781 57.4436 30.793 57.6197 30.369C57.7958 29.945 57.8864 29.4904 57.8864 29.0313C57.8864 28.5722 57.7958 28.1176 57.6197 27.6936C57.4436 27.2695 57.1856 26.8845 56.8604 26.5604L48.9214 18.6556C47.6932 17.4329 45.706 17.4347 44.4801 18.6597C43.2548 19.884 43.2548 21.8687 44.4801 23.0931L49.8421 28.4508C50.1827 28.7911 50.1827 29.3075 49.8421 29.6478L44.5528 34.9328C43.3276 36.1571 43.3276 38.142 44.5528 39.3662Z" fill="url(#paint2_linear_104_5)"/>
<path d="M29.0741 35.9202C32.8688 35.9202 35.945 32.8465 35.945 29.0549C35.945 25.2633 32.8688 22.1896 29.0741 22.1896C25.2793 22.1896 22.2031 25.2633 22.2031 29.0549C22.2031 32.8465 25.2793 35.9202 29.0741 35.9202Z" fill="url(#paint3_linear_104_5)"/>
<defs>
<linearGradient id="paint0_linear_104_5" x1="26.7093" y1="-7.30913e-07" x2="50.8921" y2="14.7681" gradientUnits="userSpaceOnUse">
<stop stop-color="#4285EB"/>
<stop offset="1" stop-color="#2EC7FF"/>
</linearGradient>
<linearGradient id="paint1_linear_104_5" x1="29.953" y1="3.75458e-07" x2="18.009" y2="61.7304" gradientUnits="userSpaceOnUse">
<stop stop-color="#29CDFF"/>
<stop offset="0.3786" stop-color="#148EFF"/>
<stop offset="1" stop-color="#0A60FF"/>
</linearGradient>
<linearGradient id="paint2_linear_104_5" x1="53.5446" y1="14.8148" x2="38.0034" y2="39.1195" gradientUnits="userSpaceOnUse">
<stop stop-color="#FA816E"/>
<stop offset="0.41473" stop-color="#F74A5C"/>
<stop offset="1" stop-color="#F51D2C"/>
</linearGradient>
<linearGradient id="paint3_linear_104_5" x1="31.5652" y1="17.289" x2="26.3942" y2="37.9739" gradientUnits="userSpaceOnUse">
<stop stop-color="#FA8E7D"/>
<stop offset="0.51264" stop-color="#F74A5C"/>
<stop offset="1" stop-color="#F51D2C"/>
</linearGradient>
</defs>
</svg>
