<svg width="73" height="58" viewBox="0 0 73 58" fill="none" xmlns="http://www.w3.org/2000/svg">
<g clip-path="url(#clip0_105_5)">
<rect x="20" y="10" width="32" height="37" fill="white"/>
<path d="M15.1204 0C10.9674 0 7.89428 3.63495 8.03189 7.57696C8.16409 11.364 7.99237 16.2693 6.75759 20.2693C5.51912 24.281 3.4243 26.8222 0.00286865 27.1485V30.8321C3.4243 31.1585 5.51912 33.6997 6.75759 37.7117C7.99237 41.7117 8.16409 46.6164 8.03189 50.4037C7.89428 54.3451 10.9674 57.9807 15.121 57.9807H57.6751C61.8283 57.9807 64.9006 54.3457 64.763 50.4037C64.6311 46.6166 64.8025 41.7117 66.0373 37.7117C67.2766 33.7 69.3658 31.1582 72.7872 30.8321V27.1485C69.3658 26.8222 67.2766 24.281 66.0376 20.2693C64.8025 16.2699 64.6311 11.3643 64.763 7.57696C64.9006 3.63552 61.8283 0 57.6751 0H15.1198H15.1204V0ZM49.3484 35.6908C49.3484 41.1189 45.2997 44.4107 38.5808 44.4107H27.1429C26.8158 44.4106 26.5021 44.2806 26.2708 44.0492C26.0395 43.8179 25.9095 43.5042 25.9095 43.177V14.8036C25.9095 14.6416 25.9414 14.4812 26.0034 14.3315C26.0653 14.1818 26.1562 14.0457 26.2708 13.9312C26.3853 13.8166 26.5213 13.7257 26.671 13.6637C26.8207 13.6016 26.9811 13.5697 27.1432 13.5697H38.5154C44.1178 13.5697 47.7946 16.6048 47.7946 21.2641C47.7946 24.5346 45.3211 27.4624 42.17 27.975V28.1459C46.46 28.6165 49.3484 31.5873 49.3484 35.6908V35.6908ZM37.3333 17.4805H30.812V26.6922H36.3049C40.5508 26.6922 42.8924 24.9824 42.8924 21.926C42.8924 19.0621 40.8789 17.4805 37.3335 17.4805H37.3333ZM30.812 30.3474V40.4988H37.5735C41.994 40.4988 44.3362 38.725 44.3362 35.3911C44.3362 32.0567 41.9289 30.3468 37.2892 30.3468H30.812V30.3474Z" fill="#7E13F8"/>
</g>
<defs>
<clipPath id="clip0_105_5">
<rect width="72.79" height="58" fill="white"/>
</clipPath>
</defs>
</svg>
