<svg width="58" height="58" viewBox="0 0 58 58" fill="none" xmlns="http://www.w3.org/2000/svg">
<path d="M27.1008 0.0155951C26.9762 0.0269232 26.5792 0.0665717 26.2219 0.0948921C17.9841 0.837565 10.2676 5.28182 5.38041 12.1127C2.65894 15.9108 0.918486 20.2191 0.260774 24.7825C0.0283204 26.3753 0 26.8458 0 29.0057C0 31.1655 0.0283204 31.6361 0.260774 33.2288C1.83697 44.1185 9.58723 53.2681 20.0986 56.6579C21.9811 57.2646 23.9654 57.6783 26.2219 57.9278C27.1008 58.0241 30.8993 58.0241 31.7782 57.9278C35.6732 57.4969 38.9729 56.5333 42.2272 54.8724C42.7261 54.6172 42.8226 54.5493 42.7545 54.4924C42.7091 54.4584 40.5831 51.6071 38.0317 48.1604L33.394 41.8964L27.5827 33.297C24.385 28.5691 21.7543 24.703 21.7317 24.703C21.709 24.6974 21.6864 28.5183 21.675 33.1835C21.6578 41.3522 21.6524 41.681 21.5502 41.8738C21.4029 42.1515 21.2894 42.265 21.0513 42.3896C20.8698 42.4803 20.711 42.4973 19.8551 42.4973H18.874L18.6135 42.333C18.4519 42.2317 18.3207 42.0887 18.2336 41.9191L18.1144 41.664L18.1257 30.2982L18.1427 18.9266L18.3185 18.7054C18.4091 18.5865 18.6019 18.4336 18.7381 18.3597C18.9706 18.2464 19.0612 18.2351 20.042 18.2351C21.1986 18.2351 21.3914 18.2804 21.6918 18.6092C21.777 18.6998 24.9235 23.439 28.6881 29.1475C32.4529 34.8558 37.6011 42.6504 40.1295 46.4768L44.7219 53.4323L44.9544 53.2794C47.0125 51.9415 49.1895 50.0368 50.913 48.0526C54.5813 43.8408 56.9454 38.7051 57.7393 33.229C57.9718 31.6361 58.0001 31.1655 58.0001 29.0059C58.0001 26.8458 57.9718 26.3755 57.7393 24.7825C56.1631 13.8928 48.4129 4.74328 37.9015 1.35345C36.0473 0.752604 34.0744 0.338674 31.8631 0.089228C31.3189 0.0325873 27.5713 -0.0297175 27.1008 0.0155951ZM38.9729 17.5547C39.245 17.6907 39.4661 17.9517 39.5454 18.2238C39.5907 18.371 39.6021 21.523 39.5907 28.626L39.574 38.8183L37.7766 36.0633L35.9737 33.3083V25.8993C35.9737 21.1091 35.9963 18.4163 36.0303 18.2861C36.1209 17.9687 36.3196 17.7192 36.5917 17.5717C36.8242 17.4528 36.9091 17.4415 37.7993 17.4415C38.6385 17.4415 38.7858 17.4528 38.9729 17.5547Z" fill="white"/>
</svg>
