<svg width="65" height="58" viewBox="0 0 65 58" fill="none" xmlns="http://www.w3.org/2000/svg">
<g clip-path="url(#clip0_202_2)">
<path d="M39.8402 35.9315L38.602 38.0818C38.4187 38.4 38.1548 38.6643 37.8368 38.8481C37.5189 39.0319 37.1581 39.1286 36.7909 39.1286H27.3046C26.9374 39.1286 26.5766 39.0319 26.2587 38.8481C25.9407 38.6643 25.6768 38.4 25.4935 38.0818L24.2551 35.9315H39.8399H39.8402ZM43.3068 29.9121L41.1235 33.7033H22.972L20.7887 29.9121H43.3068V29.9121ZM41.2037 24.0259L43.3103 27.6839H20.7852L22.8918 24.0259H41.2037V24.0259ZM36.7906 18.4614C37.1579 18.4614 37.5187 18.5581 37.8367 18.7419C38.1547 18.9256 38.4187 19.1899 38.602 19.5082L39.9204 21.7977H24.1751L25.4937 19.5082C25.6771 19.19 25.941 18.9257 26.2589 18.7419C26.5769 18.5582 26.9376 18.4614 27.3049 18.4614H36.7909H36.7906Z" fill="#00435B"/>
<path d="M13.4988 17.4636C12.448 12.3682 12.2223 8.45999 12.9017 5.62228C13.3057 3.93448 14.044 2.55761 15.1672 1.56404C16.3529 0.515253 17.8518 0.000566287 19.5364 0.000566287C22.3148 0.000566287 25.236 1.26774 28.3574 3.67474C29.6309 4.65671 30.9523 5.84016 32.3246 7.22585C32.4341 7.08539 32.5574 6.95275 32.6951 6.82994C36.575 3.37264 39.8417 1.22411 42.6358 0.395975C44.2971 -0.0967728 45.8568 -0.143677 47.277 0.334445C48.7764 0.838792 49.971 1.88204 50.814 3.34288C52.205 5.75391 52.5717 8.92197 52.0532 12.8339C51.8419 14.4284 51.4805 16.1652 50.9698 18.0471C51.1625 18.0703 51.3557 18.1132 51.5468 18.1765C56.4695 19.8081 59.9556 21.5622 62.066 23.5672C63.3218 24.76 64.1416 26.088 64.4382 27.5581C64.7509 29.1098 64.4458 30.6659 63.604 32.1258C62.2155 34.5335 59.6625 36.4321 56.0257 37.9361C54.5656 38.5401 52.9131 39.087 51.0669 39.579C51.1512 39.7691 51.2167 39.9711 51.2604 40.183C52.3112 45.2784 52.5366 49.1866 51.8575 52.0243C51.4535 53.7121 50.7149 55.089 49.5917 56.0825C48.4062 57.1313 46.9071 57.646 45.2228 57.646C42.4441 57.646 39.5232 56.3788 36.4018 53.9718C35.1147 52.9793 33.7787 51.7812 32.3904 50.3763C32.2443 50.6047 32.0675 50.8119 31.8649 50.9921C27.985 54.45 24.7183 56.598 21.9242 57.4264C20.2629 57.9191 18.7032 57.966 17.2829 57.4879C15.7835 56.9835 14.589 55.9403 13.746 54.4795C12.355 52.0684 11.9883 48.9004 12.5068 44.9884C12.7259 43.3364 13.1059 41.5313 13.6461 39.5704C13.4308 39.5486 13.2185 39.5032 13.0131 39.435C8.09045 37.8035 4.6044 36.0493 2.49396 34.0443C1.23813 32.8515 0.418312 31.5236 0.121756 30.0534C-0.19094 28.5018 0.11419 26.9453 0.955947 25.4855C2.34442 23.078 4.89742 21.1791 8.53428 19.6754C10.038 19.0533 11.7455 18.492 13.6584 17.9886C13.5892 17.8189 13.5358 17.6432 13.4988 17.4636V17.4636Z" fill="#002B3B"/>
<path d="M47.8258 40.684C48.0607 40.6423 48.3027 40.6927 48.5015 40.8246C48.7003 40.9566 48.8408 41.1599 48.8937 41.3926L48.8995 41.4208L48.9517 41.6919C50.6438 50.5876 49.4518 55.0357 45.3759 55.0357C41.3883 55.0357 36.3117 51.2402 30.1466 43.6493C30.0371 43.5144 29.9676 43.3514 29.946 43.179C29.9245 43.0066 29.9517 42.8316 30.0246 42.6738C30.0976 42.5161 30.2133 42.382 30.3587 42.2867C30.504 42.1915 30.6732 42.1389 30.8469 42.135H30.8756L31.2004 42.1373C33.7948 42.1514 36.3168 42.0609 38.7667 41.8659C41.6583 41.6357 44.6781 41.2418 47.8258 40.684V40.684ZM19.8342 33.9595L19.8498 33.986L20.0127 34.2702C21.3182 36.5398 22.6782 38.6938 24.0929 40.7327C25.7593 43.1333 27.6329 45.5638 29.7139 48.024C29.8683 48.2066 29.9464 48.4417 29.9319 48.6804C29.9174 48.9191 29.8114 49.143 29.6359 49.3056L29.6125 49.3265L29.4032 49.5068C22.5171 55.4069 18.0415 56.5848 15.9764 53.0403C13.9548 49.5711 14.6878 43.2627 18.1751 34.1154C18.2369 33.9533 18.3428 33.8118 18.4808 33.7068C18.6189 33.6018 18.7835 33.5375 18.9562 33.5213C19.1289 33.5051 19.3026 33.5376 19.4578 33.615C19.613 33.6924 19.7434 33.8118 19.8342 33.9595V33.9595ZM51.3199 20.8329L51.3481 20.8422L51.6074 20.9315C60.1069 23.8882 63.336 27.1375 61.2949 30.6792C59.2987 34.1431 53.4951 36.6653 43.8845 38.2455C43.7104 38.2741 43.5316 38.2526 43.3692 38.1833C43.2069 38.114 43.0676 37.9999 42.9678 37.8544C42.8679 37.7088 42.8116 37.5378 42.8055 37.3614C42.7993 37.1849 42.8436 37.0104 42.9331 36.8583C44.3094 34.5166 45.5494 32.187 46.6524 29.8687C47.9032 27.2398 49.077 24.4178 50.174 21.4033C50.2537 21.1842 50.4128 21.003 50.6199 20.8958C50.8269 20.7886 51.0667 20.7632 51.2916 20.8245L51.3199 20.8329V20.8329ZM21.2968 19.3443C21.402 19.406 21.494 19.488 21.5675 19.5853C21.6411 19.6826 21.6947 19.7935 21.7254 19.9116C21.756 20.0296 21.7632 20.1526 21.7463 20.2734C21.7295 20.3942 21.689 20.5106 21.6272 20.6157C20.2503 22.9572 19.0106 25.287 17.9076 27.6052C16.6568 30.2341 15.4829 33.056 14.386 36.0707C14.3045 36.2946 14.1402 36.4786 13.927 36.5848C13.7137 36.6909 13.4678 36.7111 13.2401 36.6411L13.2119 36.6318L12.9526 36.5423C4.4531 33.5858 1.22402 30.3363 3.26511 26.7947C5.26132 23.3306 11.0649 20.8086 20.6755 19.2285C20.8898 19.1932 21.1097 19.2341 21.2968 19.3443ZM48.5835 4.78173C50.6052 8.25114 49.8721 14.5595 46.3848 23.7069C46.3231 23.8689 46.2172 24.0105 46.0792 24.1155C45.9411 24.2205 45.7765 24.2847 45.6038 24.3009C45.4311 24.3171 45.2574 24.2847 45.1022 24.2072C44.947 24.1298 44.8166 24.0105 44.7258 23.8627L44.7101 23.8362L44.5472 23.552C43.2417 21.2825 41.8818 19.1284 40.4671 17.0896C38.8007 14.6889 36.927 12.2584 34.8461 9.79823C34.6916 9.61565 34.6135 9.38054 34.6281 9.14183C34.6426 8.90312 34.7486 8.6792 34.924 8.51668L34.9475 8.49575L35.1568 8.31544C42.0429 2.41533 46.5185 1.23743 48.5835 4.78173V4.78173ZM19.5326 2.67053C23.5205 2.67053 28.597 6.46575 34.7619 14.0567C34.8714 14.1916 34.9409 14.3545 34.9625 14.527C34.984 14.6994 34.9568 14.8744 34.8838 15.0322C34.8109 15.1899 34.6952 15.324 34.5498 15.4192C34.4045 15.5145 34.2353 15.5671 34.0616 15.571H34.0329L33.708 15.569C31.1139 15.5549 28.5917 15.6454 26.1421 15.8403C23.2501 16.0705 20.2304 16.4644 17.0827 17.0223C16.8478 17.0638 16.6059 17.0134 16.4071 16.8815C16.2084 16.7496 16.068 16.5463 16.015 16.3136L16.009 16.2851L15.9568 16.0143C14.2647 7.11838 15.4565 2.67053 19.5326 2.67053Z" fill="#FF4154"/>
<path d="M28.0675 18.5776H36.0301C36.6022 18.5776 37.1642 18.7286 37.6592 19.0153C38.1543 19.302 38.5649 19.7142 38.8497 20.2105L42.8479 27.177C43.1305 27.6695 43.2792 28.2274 43.2792 28.7952C43.2792 29.363 43.1305 29.9209 42.8479 30.4134L38.8497 37.38C38.5649 37.8762 38.1543 38.2884 37.6592 38.5751C37.1641 38.8618 36.6022 39.0128 36.0301 39.0128H28.0675C26.9029 39.0128 25.8274 38.3899 25.2476 37.38L21.2499 30.4134C20.9673 29.9209 20.8186 29.363 20.8186 28.7952C20.8186 28.2274 20.9673 27.6695 21.2499 27.177L25.2479 20.2105C25.5327 19.7142 25.9434 19.302 26.4385 19.0153C26.9336 18.7286 27.4956 18.5776 28.0677 18.5776H28.0675ZM34.8164 20.6803C35.9814 20.6803 37.0577 21.3039 37.6369 22.3146L40.425 27.1785C40.7071 27.6706 40.8555 28.228 40.8555 28.7952C40.8555 29.3624 40.7071 29.9198 40.425 30.4119L37.6369 35.2758C37.3523 35.7724 36.9415 36.185 36.4463 36.4719C35.951 36.7589 35.3888 36.91 34.8164 36.9099H29.2812C28.1161 36.9099 27.0398 36.2865 26.4606 35.2758L23.6726 30.4119C23.3905 29.9198 23.2421 29.3624 23.2421 28.7952C23.2421 28.228 23.3905 27.6706 23.6726 27.1785L26.4606 22.3146C26.7453 21.8181 27.156 21.4055 27.6512 21.1186C28.1464 20.8316 28.7086 20.6805 29.2809 20.6805H34.8164V20.6803ZM33.5084 22.9801H30.5892C30.0173 22.9801 29.4556 23.1309 28.9606 23.4174C28.4656 23.7038 28.055 24.1158 27.7701 24.6117L26.2969 27.1755C26.0138 27.6683 25.8647 28.2268 25.8647 28.7952C25.8647 29.3636 26.0138 29.9221 26.2969 30.4149L27.7701 32.979C28.055 33.4749 28.4656 33.8869 28.9606 34.1733C29.4556 34.4598 30.0173 34.6106 30.5892 34.6106H33.5084C34.6724 34.6106 35.7477 33.9882 36.3274 32.979L37.8006 30.4149C38.0838 29.9221 38.2328 29.3636 38.2328 28.7952C38.2328 28.2268 38.0838 27.6683 37.8006 27.1755L36.3274 24.6114C36.0425 24.1155 35.6319 23.7036 35.1369 23.4171C34.642 23.1307 34.0802 22.9798 33.5084 22.9798V22.9801ZM32.249 25.1813C33.412 25.1813 34.4865 25.8027 35.0665 26.8104L35.2756 27.1735C35.5595 27.6668 35.709 28.226 35.709 28.7952C35.709 29.3644 35.5595 29.9236 35.2756 30.417L35.0665 30.7801C34.7815 31.2753 34.3709 31.6866 33.8763 31.9726C33.3817 32.2586 32.8204 32.4091 32.249 32.4091H31.8485C31.2772 32.4091 30.7159 32.2586 30.2213 31.9726C29.7266 31.6866 29.3161 31.2753 29.031 30.7801L28.822 30.417C28.538 29.9236 28.3886 29.3644 28.3886 28.7952C28.3886 28.226 28.538 27.6668 28.822 27.1735L29.031 26.8104C29.3161 26.3152 29.7266 25.9039 30.2213 25.6179C30.7159 25.3319 31.2772 25.1813 31.8485 25.1813H32.249ZM32.0493 27.3498C31.7953 27.3496 31.5458 27.4164 31.3258 27.5432C31.1058 27.6701 30.9231 27.8526 30.796 28.0725C30.669 28.2922 30.6022 28.5415 30.6022 28.7952C30.6022 29.049 30.669 29.2982 30.796 29.5179C30.923 29.7378 31.1056 29.9204 31.3256 30.0473C31.5455 30.1743 31.795 30.2411 32.0489 30.2411C32.3028 30.2411 32.5523 30.1743 32.7722 30.0473C32.9922 29.9204 33.1748 29.7378 33.3018 29.5179C33.4288 29.2982 33.4956 29.049 33.4956 28.7952C33.4956 28.5415 33.4288 28.2922 33.3018 28.0725C33.1748 27.8527 32.9922 27.6702 32.7724 27.5434C32.5525 27.4165 32.3031 27.3497 32.0493 27.3498V27.3498ZM20.3209 28.7952H22.9234Z" fill="#FFD94C"/>
</g>
<defs>
<clipPath id="clip0_202_2">
<rect width="64.56" height="58" fill="white"/>
</clipPath>
</defs>
</svg>
