<svg width="107" height="58" viewBox="0 0 107 58" fill="none" xmlns="http://www.w3.org/2000/svg">
<g clip-path="url(#clip0_202_7)">
<path d="M32.343 38.358C37.6533 38.358 41.9582 34.0532 41.9582 28.7424C41.9582 23.4325 37.6533 19.1277 32.3426 19.1277C27.0327 19.1277 22.7279 23.4321 22.7279 28.7428C22.7279 34.0532 27.0327 38.358 32.343 38.358ZM9.61656 57.5879C14.9269 57.5879 19.2317 53.2835 19.2317 47.9727C19.2317 42.6628 14.9269 38.358 9.61615 38.358C4.30666 38.358 0.00140381 42.6624 0.00140381 47.9727C0.00140381 53.2831 4.30583 57.5883 9.61656 57.5883V57.5879ZM96.4434 57.5879C101.754 57.5879 106.059 53.2835 106.059 47.9727C106.059 42.6628 101.754 38.358 96.4434 38.358C91.1331 38.358 86.8282 42.6624 86.8282 47.9727C86.8282 53.2831 91.1331 57.5883 96.4438 57.5883L96.4434 57.5879Z" fill="white"/>
<path d="M64.864 29.1479C64.5566 25.9355 64.4 23.2617 61.9392 21.3825C58.8229 19.0029 55.2924 20.5469 50.944 18.9772C46.6707 17.9435 43.5014 14.1499 43.5014 9.628C43.5014 4.31064 47.8837 0 53.2893 0C57.2934 0 60.7357 2.36433 62.252 5.75153C64.5724 10.1595 63.064 14.645 65.9797 16.9045C69.432 19.58 74.0865 17.6208 79.2799 20.1558C80.9376 20.9165 82.3496 22.1255 83.3565 23.6462C84.3846 25.1991 84.9319 27.0208 84.93 28.8832C84.93 33.4051 81.7607 37.1991 77.4877 38.2328C73.139 39.8025 69.6084 38.2585 66.4922 40.6381C62.9873 43.3144 64.8636 47.7916 62.0071 52.5207C60.386 55.6353 57.0908 57.7668 53.2893 57.7668C47.8837 57.7668 43.5014 53.4561 43.5014 48.1388C43.5014 44.2764 45.8139 40.9451 49.1514 39.4114C54.3449 36.876 58.999 38.8356 62.4517 36.1601C64.4431 34.6165 64.864 32.2356 64.864 29.1479V29.1479Z" fill="#D0021B"/>
</g>
<defs>
<clipPath id="clip0_202_7">
<rect width="106.06" height="58" fill="white"/>
</clipPath>
</defs>
</svg>
