<svg width="61" height="58" viewBox="0 0 61 58" fill="none" xmlns="http://www.w3.org/2000/svg">
<g clip-path="url(#clip0_206_2)">
<path d="M42.1681 40.3464C44.4137 40.1139 46.1173 38.178 46.0399 35.8547C45.9626 33.5316 44.0265 31.673 41.7034 31.673H41.5487C39.1478 31.7505 37.2895 33.7638 37.367 36.1644C37.4444 37.3261 37.9089 38.3328 38.6059 39.0297C35.9731 44.2183 31.9463 48.0128 25.9062 51.1878C21.802 53.3562 17.5431 54.1306 13.2841 53.5887C9.79936 53.124 7.08905 51.5753 5.38518 49.0195C2.90735 45.225 2.67511 41.1206 4.76596 37.0164C6.23736 34.0736 8.56021 31.9052 10.0316 30.8211C9.72187 29.8144 9.25716 28.1107 9.02492 26.8718C-2.20355 35.003 -1.04188 45.9995 2.36538 51.1878C4.92071 55.0601 10.1091 57.4606 15.8394 57.4606C17.3881 57.4606 18.9367 57.3057 20.4856 56.9187C30.3977 54.9826 37.9092 49.097 42.1681 40.3464V40.3464ZM55.7972 30.7438C49.9118 23.8515 41.2389 20.0571 31.3269 20.0571H30.088C29.391 18.6632 27.9196 17.7337 26.2935 17.7337H26.1385C23.7381 17.8112 21.8798 19.8246 21.957 22.2254C22.0345 24.5485 23.9704 26.4071 26.2935 26.4071H26.4482C28.1518 26.3296 29.6232 25.2454 30.2427 23.7741H31.6366C37.5219 23.7741 43.0973 25.4777 48.1309 28.8077C52.0027 31.3633 54.7905 34.6933 56.3391 38.72C57.6555 41.9725 57.5781 45.1475 56.1841 47.8581C54.016 51.9623 50.3765 54.2081 45.5754 54.2081C42.4778 54.2081 39.5353 53.2787 37.9864 52.5817C37.1347 53.3562 35.5858 54.5951 34.5017 55.3698C37.8317 56.9184 41.2389 57.7704 44.4912 57.7704C51.9252 57.7704 57.4233 53.6659 59.5142 49.5617C61.7598 45.07 61.6048 37.3261 55.7972 30.7438V30.7438ZM16.4589 41.6625C16.5364 43.9859 18.4723 45.8442 20.7954 45.8442H20.9503C23.3509 45.767 25.2093 43.7534 25.1318 41.3528C25.0546 39.0295 23.1184 37.1711 20.7954 37.1711H20.6406C20.4856 37.1711 20.2531 37.1711 20.0986 37.2484C16.9236 31.9825 15.6072 26.2521 16.0719 20.0568C16.3814 15.4104 17.9303 11.3835 20.6406 8.05344C22.8862 5.18815 27.2227 3.79425 30.1654 3.71699C38.3736 3.56201 41.8581 13.784 42.0906 17.8885C43.0973 18.1207 44.8009 18.6629 45.9626 19.0501C45.0332 6.50503 37.2895 0 29.8557 0C22.8862 0 16.4589 5.03364 13.9033 12.4679C10.3413 22.3802 12.6644 31.9052 17.0009 39.4169C16.6139 39.9589 16.3814 40.8108 16.4589 41.6628V41.6625Z" fill="#764ABC"/>
</g>
<defs>
<clipPath id="clip0_206_2">
<rect width="60.86" height="58" fill="white"/>
</clipPath>
</defs>
</svg>
