<svg width="58" height="58" viewBox="0 0 58 58" fill="none" xmlns="http://www.w3.org/2000/svg">
<g clip-path="url(#clip0_205_2)">
<path d="M4.53125 0H53.4688C55.9714 0 58 2.02864 58 4.53125V53.4688C58 55.9714 55.9714 58 53.4688 58H4.53125C2.02864 58 0 55.9714 0 53.4688V4.53125C0 2.02864 2.02864 0 4.53125 0Z" fill="#3178C6"/>
<path d="M34.1017 45.4201V51.6778C35.1195 52.1993 36.3232 52.5904 37.7127 52.8511C39.1022 53.1119 40.5667 53.2422 42.1064 53.2422C43.6067 53.2422 45.0322 53.0988 46.3826 52.8119C47.7329 52.5251 48.9171 52.0525 49.9346 51.3943C50.9523 50.736 51.758 49.8755 52.3518 48.8129C52.9454 47.7505 53.2422 46.4372 53.2422 44.8727C53.2422 43.7386 53.0725 42.7444 52.7333 41.8905C52.3979 41.0424 51.8991 40.2684 51.2654 39.6124C50.6263 38.9475 49.8596 38.3511 48.966 37.823C48.0723 37.2951 47.0643 36.7965 45.9421 36.3273C45.1202 35.9881 44.3831 35.6591 43.7306 35.3397C43.0784 35.0202 42.5237 34.6944 42.0672 34.3618C41.6105 34.0295 41.2582 33.6774 41.0103 33.3058C40.7624 32.9343 40.6385 32.514 40.6385 32.0445C40.6385 31.6143 40.7493 31.2267 40.9711 30.8811C41.1929 30.5356 41.5063 30.2391 41.9107 29.9914C42.3151 29.7436 42.8108 29.5515 43.398 29.4144C43.9851 29.2775 44.6376 29.2091 45.3551 29.2091C45.8771 29.2091 46.4283 29.2483 47.0088 29.3265C47.5895 29.4046 48.1733 29.5252 48.7606 29.6883C49.3459 29.8506 49.9183 30.0565 50.4729 30.3043C51.0107 30.5426 51.525 30.8306 52.0092 31.1646V25.3177C51.0568 24.9527 50.0162 24.6822 48.8877 24.5061C47.7591 24.3301 46.4641 24.2422 45.0028 24.2422C43.5154 24.2422 42.1064 24.4019 40.7756 24.7214C39.4448 25.0406 38.2737 25.5393 37.2625 26.2171C36.2514 26.8952 35.4523 27.7589 34.865 28.8083C34.278 29.8578 33.9844 31.1125 33.9844 32.5727C33.9844 34.4368 34.5225 36.0273 35.5991 37.3441C36.6755 38.6606 38.3095 39.7753 40.5014 40.6879C41.3106 41.0175 42.1132 41.363 42.9087 41.7244C43.6525 42.0634 44.295 42.4152 44.8365 42.7802C45.378 43.1452 45.8053 43.5428 46.1184 43.9731C46.4315 44.4033 46.588 44.8922 46.588 45.4398C46.5906 45.8339 46.4894 46.2217 46.2944 46.5643C46.0989 46.9095 45.8019 47.2095 45.404 47.4637C45.0062 47.7179 44.5102 47.9166 43.9166 48.06C43.3231 48.2034 42.6282 48.2753 41.8323 48.2753C40.4754 48.2753 39.1316 48.0374 37.8008 47.5614C36.4698 47.0856 35.2368 46.3719 34.1017 45.4201V45.4201ZM23.6717 29.8478H31.7188V24.6953H9.28906V29.8478H17.2969V52.7891H23.6717V29.8478Z" fill="white"/>
</g>
<defs>
<clipPath id="clip0_205_2">
<rect width="58" height="58" fill="white"/>
</clipPath>
</defs>
</svg>
